<svg width="25" height="32" viewBox="0 0 25 32" fill="none" xmlns="http://www.w3.org/2000/svg">
<path d="M23.524 5.28921L23.5424 5.42876V25.3576H23.4759V22.0798V20.5716L22.324 21.5451C21.7692 22.014 21.0444 22.4372 20.1887 22.8011C18.1223 23.6798 15.27 24.2224 12.1212 24.2224C8.97247 24.2224 6.12013 23.6798 4.05372 22.8011C3.19807 22.4372 2.47323 22.014 1.91839 21.5451L0.766546 20.5716V22.0798V25.3576H0.7V5.42877L0.718469 5.28921C0.793839 4.71964 1.10169 4.17128 1.60251 3.66777C2.18251 3.08465 3.0205 2.56073 4.05372 2.12137C6.12013 1.24266 8.97247 0.7 12.1212 0.7C15.27 0.7 18.1223 1.24266 20.1887 2.12137C21.2219 2.56073 22.0599 3.08465 22.6399 3.66777C23.1407 4.17128 23.4486 4.71964 23.524 5.28921ZM23.3732 26.7576H23.4417C23.1016 27.9293 21.9198 28.9768 20.1896 29.7691C18.123 30.7155 15.2703 31.3 12.1212 31.3C8.9721 31.3 6.11944 30.7155 4.05282 29.7691C2.32266 28.9768 1.14085 27.9293 0.80076 26.7576H0.869236C1.20819 27.9037 2.36845 28.9354 4.08463 29.7213C6.13961 30.6624 8.98091 31.2453 12.1212 31.2453C15.2615 31.2453 18.1028 30.6624 20.1578 29.7213C21.874 28.9354 23.0342 27.9037 23.3732 26.7576ZM1.91839 7.38996L0.766546 6.41647V7.9246V12.275C0.766546 12.9355 1.08082 13.5666 1.65388 14.1427L2.13421 13.6649L1.65388 14.1427C2.2264 14.7183 3.05614 15.2379 4.08372 15.6748C6.13892 16.5488 8.98056 17.0902 12.1212 17.0902C15.2619 17.0902 18.1035 16.5488 20.1587 15.6748C21.1863 15.2379 22.016 14.7183 22.5885 14.1427C23.1616 13.5666 23.4759 12.9355 23.4759 12.275V7.9246V6.41647L22.324 7.38996C21.7692 7.85888 21.0444 8.28205 20.1887 8.6459C18.1223 9.52461 15.27 10.0673 12.1212 10.0673C8.97247 10.0673 6.12013 9.52461 4.05372 8.6459C3.19807 8.28205 2.47323 7.85888 1.91839 7.38996ZM23.4759 15.0022V13.494L22.324 14.4675C21.7692 14.9365 21.0444 15.3596 20.1887 15.7235C18.1223 16.6022 15.27 17.1448 12.1212 17.1448C8.97247 17.1448 6.12013 16.6022 4.05372 15.7235C3.19807 15.3596 2.47323 14.9365 1.91839 14.4675L0.766546 13.4941V15.0022V19.3525C0.766546 20.0131 1.08082 20.6441 1.65388 21.2203L2.13751 20.7392L1.65388 21.2203C2.2264 21.7959 3.05614 22.3154 4.08372 22.7524C6.13892 23.6264 8.98056 24.1677 12.1212 24.1677C15.2619 24.1677 18.1035 23.6264 20.1587 22.7524C21.1863 22.3154 22.016 21.7959 22.5885 21.2203C23.1616 20.6441 23.4759 20.0131 23.4759 19.3525V15.0022ZM23.4567 5.47841L23.4696 5.38363L23.4567 5.28885C23.3797 4.7257 23.0775 4.19373 22.5885 3.70213C22.016 3.12654 21.1863 2.60697 20.1587 2.17001C18.1035 1.29607 15.2619 0.754679 12.1212 0.754679C8.98056 0.754679 6.13892 1.29607 4.08372 2.17001C3.05614 2.60697 2.2264 3.12654 1.65388 3.70213C1.16491 4.19373 0.862711 4.72571 0.785753 5.28885L0.7728 5.38363L0.785753 5.47841C0.862711 6.04156 1.16491 6.57354 1.65388 7.06514C2.2264 7.64073 3.05614 8.16029 4.08372 8.59726C6.13892 9.4712 8.98056 10.0126 12.1212 10.0126C15.2619 10.0126 18.1035 9.4712 20.1587 8.59726C21.1863 8.16029 22.016 7.64073 22.5885 7.06514C23.0775 6.57354 23.3797 6.04156 23.4567 5.47841Z" fill="white" stroke="white" stroke-width="1.4"/>
</svg>
