<svg width="32" height="32" viewBox="0 0 32 32" fill="none" xmlns="http://www.w3.org/2000/svg">
<path fill-rule="evenodd" clip-rule="evenodd" d="M21 10H1.5H1.4V29C1.4 29.8837 2.11634 30.6 3 30.6H21V10ZM0 10V8.5V3C0 1.34315 1.34315 0 3 0H29C30.6569 0 32 1.34315 32 3V8.5V9V10V29C32 30.6569 30.6569 32 29 32H22H21H3C1.34315 32 0 30.6569 0 29V10ZM30.6 10H30.5H22V30.6H29C29.8837 30.6 30.6 29.8837 30.6 29V10ZM5 16H18V14.6H5V16ZM18 21H5V19.6H18V21ZM5 26H18V24.6H5V26ZM3 1.5H29C29.8284 1.5 30.5 2.17157 30.5 3V8.5H1.5V3C1.5 2.17157 2.17157 1.5 3 1.5Z" fill="white"/>
</svg>
