<svg width="32" height="20" viewBox="0 0 32 20" fill="none" xmlns="http://www.w3.org/2000/svg">
<path fill-rule="evenodd" clip-rule="evenodd" d="M3 1.5H29C29.1145 1.5 29.226 1.51282 29.3331 1.53712L16.6759 9.67386C16.2642 9.93856 15.7358 9.93856 15.3241 9.67386L2.6669 1.53712C2.77403 1.51282 2.88552 1.5 3 1.5ZM1.55325 2.60246C1.51854 2.72907 1.5 2.86237 1.5 3V15C1.5 16.933 3.067 18.5 5 18.5H27C28.933 18.5 30.5 16.933 30.5 15V3C30.5 2.86237 30.4815 2.72907 30.4468 2.60245C30.4334 2.61231 30.4197 2.6218 30.4056 2.63088L17.4871 10.9356C16.5812 11.518 15.4188 11.518 14.5129 10.9356L1.59443 2.63088C1.58029 2.6218 1.56656 2.61231 1.55325 2.60246ZM0 3C0 1.34315 1.34315 0 3 0H29C30.6569 0 32 1.34315 32 3V15C32 17.7614 29.7614 20 27 20H5C2.23858 20 0 17.7614 0 15V3Z" fill="white"/>
</svg>
