<svg width="33" height="29" viewBox="0 0 33 29" fill="none" xmlns="http://www.w3.org/2000/svg">
<path fill-rule="evenodd" clip-rule="evenodd" d="M5.30463 0H6.00463H31.77H32.47V0.7V24.8862C32.47 26.9297 30.8134 28.5862 28.77 28.5862H3.35231C1.50088 28.5862 0 27.0853 0 25.2339V5.28698V4.58698H0.7H5.30463V0.7V0ZM5.30463 5.98698H1.4V25.2339C1.4 26.3121 2.27408 27.1862 3.35231 27.1862C4.43055 27.1862 5.30463 26.3121 5.30463 25.2339V5.98698ZM6.07779 27.1862H28.77C30.0402 27.1862 31.07 26.1565 31.07 24.8862V1.4H6.70463V5.28698V25.2339C6.70463 25.9623 6.47233 26.6364 6.07779 27.1862ZM8.46751 3.61282H20.1188V15.2641H8.46751V3.61282ZM29.8281 18.1769H8.46751V19.6361H29.8281V18.1769ZM21.0566 13.8115H29.795V15.2707H21.0566V13.8115ZM29.828 8.74136H21.0895V10.2006H29.828V8.74136ZM21.0895 3.61283H29.828V5.07202H21.0895V3.61283ZM29.8281 23.0315H8.46751V24.4907H29.8281V23.0315Z" fill="white"/>
</svg>
