<svg width="32" height="27" viewBox="0 0 32 27" fill="none" xmlns="http://www.w3.org/2000/svg">
<path fill-rule="evenodd" clip-rule="evenodd" d="M13.0679 1.3H18.7993C19.6639 1.3 20.3649 2.00098 20.3649 2.86567C20.3649 3.73037 19.6639 4.43134 18.7993 4.43134H13.0679C12.2032 4.43134 11.5022 3.73037 11.5022 2.86567C11.5022 2.00098 12.2032 1.3 13.0679 1.3ZM10.2763 2.21567C10.5707 0.946128 11.7088 0 13.0679 0H18.7993C20.1583 0 21.2965 0.946128 21.5909 2.21567H28.3515C30.2432 2.21567 31.8672 3.64299 31.8672 5.51091V23.1458C31.8672 25.0137 30.2432 26.441 28.3515 26.441H3.51567C1.62399 26.441 0 25.0137 0 23.1458V5.51091C0 3.64299 1.62399 2.21567 3.51567 2.21567H10.2763ZM10.2763 3.51567H3.51567C2.24202 3.51567 1.3 4.45698 1.3 5.51091V23.1458C1.3 24.1997 2.24202 25.141 3.51567 25.141H28.3515C29.6251 25.141 30.5672 24.1997 30.5672 23.1458V5.51091C30.5672 4.45698 29.6251 3.51567 28.3515 3.51567H21.5909C21.2965 4.78522 20.1583 5.73134 18.7993 5.73134H13.0679C11.7088 5.73134 10.5707 4.78522 10.2763 3.51567ZM13.2396 12.4179C13.2396 14.2273 11.7728 15.694 9.96349 15.694C8.15414 15.694 6.68737 14.2273 6.68737 12.4179C6.68737 10.6086 8.15414 9.14179 9.96349 9.14179C11.7728 9.14179 13.2396 10.6086 13.2396 12.4179ZM14.7396 12.4179C14.7396 15.0557 12.6013 17.194 9.96349 17.194C7.32571 17.194 5.18737 15.0557 5.18737 12.4179C5.18737 9.78013 7.32571 7.64179 9.96349 7.64179C12.6013 7.64179 14.7396 9.78013 14.7396 12.4179ZM4.98215 22.9254C4.98215 22.199 5.42376 21.4497 6.32684 20.8476C7.22468 20.2491 8.50824 19.8545 9.96349 19.8545C11.4187 19.8545 12.7023 20.2491 13.6001 20.8476C14.5032 21.4497 14.9448 22.199 14.9448 22.9254C14.9448 23.3396 15.2806 23.6754 15.6948 23.6754C16.109 23.6754 16.4448 23.3396 16.4448 22.9254C16.4448 21.5415 15.6034 20.3804 14.4322 19.5996C13.2557 18.8152 11.6736 18.3545 9.96349 18.3545C8.25341 18.3545 6.67129 18.8152 5.49479 19.5996C4.32354 20.3804 3.48215 21.5415 3.48215 22.9254C3.48215 23.3396 3.81793 23.6754 4.23215 23.6754C4.64636 23.6754 4.98215 23.3396 4.98215 22.9254ZM19.5493 9.00746H18.7993V10.5075H19.5493H27.6015H28.3515V9.00746H27.6015H19.5493ZM18.7993 14.7388H19.5493H27.6015H28.3515V16.2388H27.6015H19.5493H18.7993V14.7388ZM19.5493 20.4701H18.7993V21.9701H19.5493H27.6015H28.3515V20.4701H27.6015H19.5493Z" fill="white"/>
</svg>
