<svg width="32" height="29" viewBox="0 0 32 29" fill="none" xmlns="http://www.w3.org/2000/svg">
<path fill-rule="evenodd" clip-rule="evenodd" d="M17.8 3.5C17.8 4.77026 16.7703 5.8 15.5 5.8C14.2297 5.8 13.2 4.77026 13.2 3.5C13.2 2.22975 14.2297 1.2 15.5 1.2C16.7703 1.2 17.8 2.22975 17.8 3.5ZM18.9646 4C18.7219 5.69615 17.2632 7 15.5 7C13.7368 7 12.2781 5.69615 12.0354 4H0.6C0.268629 4 0 3.73137 0 3.4C0 3.06863 0.268629 2.8 0.6 2.8H12.07C12.3943 1.20243 13.8067 0 15.5 0C17.1933 0 18.6057 1.20243 18.93 2.8H31.4C31.7314 2.8 32 3.06863 32 3.4C32 3.73137 31.7314 4 31.4 4H18.9646ZM0 25.4C0 25.0686 0.268629 24.8 0.6 24.8H4.07001C4.3943 23.2024 5.80673 22 7.5 22C9.19327 22 10.6057 23.2024 10.93 24.8H31.4C31.7314 24.8 32 25.0686 32 25.4C32 25.7314 31.7314 26 31.4 26H10.9646C10.7219 27.6961 9.26324 29 7.5 29C5.73676 29 4.27806 27.6961 4.03544 26H0.6C0.268629 26 0 25.7314 0 25.4ZM31.4 15.2C31.7314 15.2 32 14.9314 32 14.6C32 14.2686 31.7314 14 31.4 14H27.9646C27.7219 12.3039 26.2632 11 24.5 11C22.7368 11 21.2781 12.3039 21.0354 14L0.6 14C0.268629 14 0 14.2686 0 14.6C0 14.9314 0.268629 15.2 0.6 15.2L21.07 15.2C21.3943 16.7976 22.8067 18 24.5 18C26.1933 18 27.6057 16.7976 27.93 15.2H31.4ZM7.5 27.8C8.77026 27.8 9.8 26.7703 9.8 25.5C9.8 24.2297 8.77026 23.2 7.5 23.2C6.22974 23.2 5.2 24.2297 5.2 25.5C5.2 26.7703 6.22974 27.8 7.5 27.8ZM22.2 14.5C22.2 13.2297 23.2297 12.2 24.5 12.2C25.7703 12.2 26.8 13.2297 26.8 14.5C26.8 15.7703 25.7703 16.8 24.5 16.8C23.2297 16.8 22.2 15.7703 22.2 14.5Z" fill="white"/>
</svg>
